<?xml version="1.0" standalone="no"?>
<!DOCTYPE svg PUBLIC "-//W3C//DTD SVG 20010904//EN"
 "http://www.w3.org/TR/2001/REC-SVG-20010904/DTD/svg10.dtd">
<svg version="1.0" xmlns="http://www.w3.org/2000/svg"
 width="500.000000pt" height="500.000000pt" viewBox="0 0 500.000000 500.000000"
 preserveAspectRatio="xMidYMid meet">

<g transform="translate(0.000000,500.000000) scale(0.100000,-0.100000)"
fill="#000000" stroke="none">
<path d="M2375 4174 c-540 -55 -983 -315 -1269 -744 -191 -287 -279 -582 -279
-935 0 -181 13 -280 59 -448 165 -597 664 -1063 1273 -1187 215 -44 385 -48
601 -14 240 37 475 130 677 265 384 259 635 651 719 1124 24 135 24 403 0 535
-133 730 -667 1263 -1386 1384 -95 16 -320 28 -395 20z m-281 -513 c-2 -37 -1
-37 36 -10 32 24 78 21 118 -7 18 -13 20 -18 9 -28 -42 -42 -124 -59 -147 -31
-12 15 -40 21 -40 9 0 -3 11 -15 25 -26 34 -27 32 -35 -14 -48 -42 -11 -69 -5
-87 19 -7 9 -18 12 -30 7 -18 -7 -17 -9 9 -30 37 -30 34 -40 -14 -56 -36 -12
-45 -12 -70 3 -27 15 -59 14 -59 -2 0 -4 14 -12 31 -18 38 -15 34 -32 -14 -58
-35 -19 -39 -19 -66 -4 -19 11 -33 13 -45 7 -21 -12 -20 -28 2 -28 10 0 27 -7
38 -15 19 -15 18 -16 -9 -40 -30 -27 -107 -36 -107 -13 0 6 -9 3 -20 -7 -27
-25 -25 -35 8 -35 15 0 34 -5 42 -10 12 -8 10 -14 -15 -40 -35 -36 -65 -46
-95 -30 -18 10 -24 8 -36 -7 -21 -28 -17 -33 31 -33 25 0 45 -3 45 -6 0 -4 -9
-21 -20 -39 -25 -41 -74 -63 -101 -46 -17 10 -21 8 -29 -14 -6 -15 -10 -27
-10 -28 0 -1 20 -1 45 1 37 3 45 1 45 -13 0 -60 -82 -119 -117 -84 -8 8 -13 2
-18 -21 -8 -38 -3 -45 23 -31 12 6 32 11 47 11 23 0 25 -3 19 -27 -17 -70 -51
-105 -96 -100 -19 2 -24 -3 -26 -30 l-3 -31 38 19 c49 25 63 24 63 -3 0 -73
-38 -126 -81 -115 -16 4 -19 -1 -19 -35 0 -37 1 -38 17 -23 16 17 55 35 75 35
7 0 9 -20 6 -55 -5 -62 -28 -95 -66 -95 -20 0 -23 -4 -18 -22 3 -13 6 -31 6
-41 0 -14 8 -10 35 18 55 55 75 45 75 -39 0 -49 -22 -86 -52 -86 -18 0 -20 -4
-14 -32 8 -42 23 -57 32 -32 10 27 45 64 61 64 26 0 49 -91 32 -132 -17 -41
-39 -44 -40 -5 -1 31 -2 31 -9 -7 -6 -31 -3 -47 14 -75 17 -30 21 -32 25 -16
3 19 27 61 46 81 13 13 25 2 49 -44 24 -46 20 -89 -10 -119 l-26 -26 31 -31
31 -31 0 28 c0 30 25 87 38 87 11 0 57 -50 71 -77 18 -36 13 -70 -14 -91 l-25
-20 39 -31 39 -31 0 42 c-1 54 9 88 26 88 8 0 32 -18 55 -40 35 -34 41 -46 41
-80 0 -28 -5 -43 -16 -47 -8 -3 -13 -12 -10 -19 4 -12 0 -11 -24 1 -37 19 -40
19 -40 -3 0 -10 -5 -23 -12 -30 -16 -16 -82 -15 -111 1 -29 16 -77 59 -77 69
0 14 58 38 91 38 l33 0 -29 30 c-34 35 -39 36 -65 10 -39 -39 -114 -14 -164
53 -26 35 -14 47 52 50 29 1 52 4 52 7 -1 3 -12 18 -26 34 -23 26 -26 27 -43
12 -32 -29 -70 -20 -117 28 -26 25 -44 53 -44 66 0 20 4 22 55 18 60 -3 65 3
38 42 -24 36 -23 36 -32 22 -4 -7 -19 -15 -34 -17 -20 -4 -33 2 -57 27 -30 33
-59 102 -47 115 4 3 28 1 54 -4 27 -6 49 -10 51 -9 1 2 -3 16 -8 32 -9 27 -14
29 -46 26 -45 -5 -68 15 -89 79 -24 70 -6 86 56 53 37 -19 41 -16 33 24 -6 27
-10 30 -33 26 -40 -8 -71 30 -78 100 -5 52 -4 56 15 56 11 0 34 -12 51 -26
l31 -26 0 36 c0 31 -3 36 -24 36 -37 0 -66 44 -66 99 0 73 11 81 59 43 24 -19
41 -27 41 -20 0 7 3 23 6 36 5 19 2 22 -20 22 -39 0 -58 49 -44 113 5 26 14
47 20 47 5 0 23 -14 39 -31 33 -35 35 -35 44 4 5 20 3 27 -7 27 -8 0 -23 9
-33 20 -14 15 -16 29 -11 63 4 24 13 53 21 63 13 18 14 18 34 0 11 -10 23 -28
27 -39 6 -20 7 -20 20 -2 19 26 17 42 -6 48 -25 7 -27 64 -4 113 21 44 41 43
61 -3 14 -35 16 -36 29 -18 18 24 18 30 -1 45 -22 18 -18 62 8 100 32 48 44
47 58 -1 l13 -41 18 22 c16 19 16 24 3 37 -8 8 -15 21 -15 29 0 38 60 111 80
99 6 -4 10 -22 10 -41 0 -19 4 -34 8 -34 20 0 29 25 25 61 -5 35 -2 43 31 74
43 40 56 38 56 -11 0 -19 4 -34 8 -34 19 0 31 25 25 52 -6 32 14 61 60 84 24
13 28 13 33 -1 4 -8 3 -26 0 -40 -7 -27 -6 -28 18 -19 10 4 16 18 16 40 0 27
7 38 37 59 46 31 58 28 57 -14z m790 18 c14 -11 26 -29 26 -39 0 -10 7 -21 16
-24 13 -5 14 -1 9 24 -10 45 1 52 44 31 41 -21 64 -58 50 -83 -6 -11 -2 -18
14 -25 21 -10 22 -9 19 22 -5 42 10 51 48 29 36 -22 58 -69 43 -93 -9 -14 -7
-20 8 -29 15 -10 19 -9 19 2 0 8 5 27 10 42 l11 27 39 -38 c41 -40 50 -71 28
-93 -10 -10 -8 -17 9 -33 l21 -21 7 41 c8 50 25 52 59 8 29 -38 34 -91 10
-105 -13 -7 -13 -11 5 -33 19 -23 20 -23 26 -4 14 44 25 65 32 65 5 0 19 -17
32 -37 28 -43 30 -92 5 -110 -15 -11 -16 -16 -5 -40 l13 -28 12 30 c7 17 20
36 29 43 14 12 19 9 37 -20 35 -56 24 -109 -28 -135 -2 -1 3 -13 11 -28 l14
-27 22 36 c28 45 44 46 59 3 24 -65 9 -127 -29 -127 -18 0 -20 -4 -14 -32 9
-42 14 -47 26 -25 12 21 50 57 60 57 10 0 19 -39 19 -87 0 -47 -30 -89 -56
-79 -11 4 -14 -4 -14 -35 l0 -41 35 31 c53 46 65 42 65 -23 0 -66 -29 -110
-66 -103 -13 2 -25 -1 -25 -7 -1 -6 -3 -26 -5 -44 l-4 -33 33 25 c17 13 41 26
52 28 18 3 20 -2 18 -44 -1 -31 -9 -58 -24 -79 -19 -27 -26 -30 -54 -26 -31 5
-33 4 -43 -35 -9 -35 -8 -39 6 -32 37 15 92 28 98 22 12 -12 -28 -108 -53
-128 -28 -22 -58 -26 -68 -10 -11 18 -23 11 -34 -21 -15 -44 -14 -51 8 -39 31
16 91 13 91 -5 0 -22 -35 -88 -55 -105 -18 -15 -71 -18 -97 -6 -12 6 -21 0
-32 -23 -9 -16 -16 -31 -16 -33 0 -2 23 -1 51 1 64 4 77 -7 52 -45 -50 -78
-113 -105 -155 -67 -18 16 -20 15 -51 -15 l-32 -32 29 0 c33 0 106 -20 106
-30 0 -10 -73 -76 -97 -89 -12 -6 -32 -11 -45 -11 -28 1 -62 25 -54 39 16 25
-15 17 -50 -13 l-39 -33 43 -8 c23 -4 52 -15 64 -25 l23 -18 -25 -21 c-34 -29
-87 -51 -123 -51 -32 0 -67 24 -67 47 0 7 -6 13 -12 13 -7 0 1 11 17 25 17 13
25 24 19 25 -6 0 -17 13 -23 29 -17 39 5 89 53 126 45 34 55 27 64 -45 l7 -53
32 27 32 27 -25 26 c-13 14 -24 34 -24 45 0 30 57 128 74 128 13 0 46 -66 46
-95 l1 -30 29 35 c33 39 36 50 16 50 -24 0 -40 31 -39 73 2 43 30 107 48 107
12 0 55 -61 55 -78 0 -17 11 -15 26 6 18 23 18 52 0 52 -20 0 -46 39 -46 70 0
42 20 100 34 100 8 0 28 -16 46 -36 25 -29 34 -34 41 -23 16 25 11 59 -9 59
-36 0 -53 33 -50 96 4 71 21 80 67 34 32 -33 38 -30 43 19 3 20 -2 24 -24 25
-16 1 -35 9 -45 18 -18 19 -32 128 -16 128 21 0 73 -22 73 -31 0 -5 5 -9 10
-9 6 0 10 14 10 30 0 25 -4 30 -23 30 -40 0 -65 27 -76 81 -6 29 -9 54 -6 57
2 3 24 -3 48 -12 56 -21 57 -21 48 12 -6 21 -13 26 -30 24 -31 -5 -70 24 -87
63 -22 54 -20 58 36 53 28 -3 50 -2 49 1 -4 34 -18 46 -51 43 -31 -3 -40 2
-67 35 -17 20 -31 43 -31 50 0 16 33 25 64 17 28 -7 31 -2 16 26 -9 16 -15 18
-36 10 -30 -12 -59 0 -91 39 -32 37 -28 48 17 56 35 6 39 9 29 26 -8 16 -14
17 -30 8 -26 -14 -67 -4 -96 23 -39 36 -25 58 35 58 l26 0 -21 21 c-17 17 -24
19 -41 10 -33 -18 -60 -13 -94 18 l-32 28 38 20 c33 17 36 21 22 33 -14 11
-19 10 -34 -4 -25 -22 -54 -20 -98 6 l-36 21 23 18 c13 10 30 19 37 19 18 0
15 17 -4 24 -9 4 -24 0 -34 -9 -30 -28 -120 -11 -120 22 0 5 12 16 26 23 24
13 24 15 8 27 -15 11 -20 10 -31 -7 -15 -22 -85 -28 -113 -10 -12 7 -11 13 10
34 l23 26 -37 0 c-31 0 -46 7 -79 41 -47 47 -41 59 34 59 32 0 55 -6 73 -21z
m-374 -62 c0 -15 122 -413 129 -420 9 -9 72 29 142 86 73 59 171 129 175 124
2 -2 -16 -51 -42 -108 -25 -57 -52 -120 -61 -139 -51 -120 -64 -142 -81 -135
-117 45 -138 49 -267 49 -115 0 -139 -3 -209 -26 -44 -15 -83 -25 -87 -22 -4
2 -17 28 -27 57 -11 28 -27 66 -36 82 -9 17 -16 33 -16 37 0 3 -20 50 -45 103
-25 54 -44 102 -43 107 2 5 71 -43 153 -107 83 -63 155 -115 162 -115 7 0 16
15 21 33 52 188 118 397 124 397 4 0 8 -1 8 -3z m-355 -544 c35 -86 53 -97
110 -67 116 60 347 60 482 -2 17 -8 37 -14 45 -14 8 0 29 31 47 70 17 39 36
70 40 70 20 0 103 -78 161 -151 82 -104 119 -213 127 -369 6 -137 -16 -242
-75 -354 -57 -110 -212 -253 -314 -292 -48 -17 13 95 150 278 108 145 151 233
159 325 10 125 -34 214 -148 296 -77 55 -197 93 -341 108 -300 30 -573 -72
-659 -247 -20 -40 -24 -63 -23 -131 0 -76 4 -89 42 -165 23 -46 77 -130 120
-188 79 -106 172 -252 172 -269 0 -19 -86 20 -152 69 -205 151 -305 419 -252
678 25 124 84 232 181 330 45 46 88 82 95 80 7 -3 22 -27 33 -55z m565 -149
c36 -9 72 -18 80 -21 8 -3 -21 -17 -65 -32 -44 -14 -96 -36 -115 -48 -40 -25
-110 -98 -110 -115 0 -7 -22 13 -49 43 -54 61 -117 99 -204 124 -65 19 -64 26
3 44 121 32 332 35 460 5z m-436 -85 c81 -27 128 -63 177 -132 l41 -58 27 43
c81 127 285 208 387 155 51 -27 120 -111 133 -163 7 -25 10 -49 7 -51 -2 -3
-33 15 -68 40 -117 83 -163 95 -212 56 -32 -25 -59 -79 -111 -214 -42 -111
-72 -158 -115 -180 -91 -47 -158 16 -231 222 -53 151 -88 193 -158 193 -28 0
-125 -54 -182 -102 -18 -15 -34 -26 -36 -25 -1 2 3 26 10 54 16 62 66 126 127
165 40 26 51 29 95 23 27 -3 76 -15 109 -26z m-65 -138 c22 -17 23 -21 12 -70
-23 -110 -6 -228 63 -412 68 -183 100 -379 70 -432 -9 -15 -12 1 -17 70 -7
104 -35 200 -116 391 -89 208 -121 309 -121 380 0 33 3 67 6 76 9 22 73 20
103 -3z m671 0 c27 -51 -1 -171 -90 -386 -103 -249 -140 -363 -147 -454 -7
-98 -23 -89 -23 14 0 79 32 214 80 345 58 155 63 184 61 337 -3 159 -1 162 71
163 27 0 40 -5 48 -19z m-810 -61 c0 -65 20 -139 77 -279 29 -73 60 -145 67
-160 15 -30 71 -192 80 -233 10 -46 -8 -32 -39 30 -33 66 -82 141 -176 268
-87 117 -132 205 -137 269 l-4 51 57 47 c32 26 61 47 66 47 5 0 9 -18 9 -40z
m929 -14 l53 -40 -6 -46 c-9 -68 -65 -173 -149 -284 -41 -55 -104 -147 -139
-205 -40 -67 -64 -100 -66 -88 -5 25 19 93 115 327 78 188 113 303 113 366 0
29 2 28 79 -30z m-270 -42 c-18 -22 -21 -11 -7 27 11 30 13 31 16 11 2 -13 -2
-30 -9 -38z m-460 14 c6 -17 8 -34 5 -37 -8 -9 -34 30 -34 51 0 29 17 21 29
-14z m766 -879 c11 -50 -3 -117 -26 -124 -23 -7 -26 -25 -4 -25 22 0 95 -50
95 -66 0 -16 -100 -54 -141 -54 -47 0 -106 68 -61 71 16 1 16 2 0 6 -24 6 -23
20 1 28 21 6 38 36 19 32 -7 -1 -14 6 -16 16 -10 45 22 95 80 127 44 25 45 25
53 -11z m-958 -35 c41 -31 55 -78 36 -117 -10 -21 -19 -27 -31 -22 -30 11 -37
10 -37 -5 -1 -8 -6 -25 -13 -37 -11 -20 -21 -23 -68 -23 -52 0 -124 25 -138
49 -8 12 42 48 80 57 16 4 34 10 39 15 6 4 17 4 25 -1 24 -16 25 -13 22 60
l-4 70 29 -11 c15 -6 42 -21 60 -35z m-547 -28 c0 -26 -68 -163 -84 -169 -14
-6 -14 -3 0 31 10 20 28 65 42 99 23 56 42 74 42 39z m1330 -21 c0 -58 -29
-112 -64 -120 l-31 -6 31 -13 c34 -15 84 -64 84 -82 0 -16 -54 -34 -101 -34
-51 0 -85 14 -104 44 -15 23 -15 27 0 50 10 14 26 26 37 26 15 0 17 3 8 19
-28 53 -2 104 70 135 57 25 70 21 70 -19z m-627 8 c39 -8 87 -56 87 -86 0 -42
-10 -57 -40 -57 -16 0 -30 -7 -34 -15 -3 -8 -1 -15 4 -15 18 0 11 -26 -13 -48
-33 -32 -75 -36 -145 -17 -34 10 -62 20 -62 23 0 15 81 82 99 82 12 0 21 4 21
9 0 4 12 6 27 3 27 -5 27 -5 11 20 -9 13 -17 40 -18 59 -3 56 -1 62 18 54 9
-3 30 -9 45 -12z m1228 -102 c89 -89 72 -106 -19 -20 -37 35 -69 64 -71 65 -4
3 9 24 15 24 3 0 36 -31 75 -69z m-1823 14 c-2 -1 -15 -5 -31 -9 -27 -6 -27
-6 -10 12 13 13 22 16 31 9 7 -5 11 -11 10 -12z m1722 -10 c0 -9 -9 -15 -23
-15 -13 0 -27 -3 -33 -7 -5 -5 1 2 14 15 27 26 42 28 42 7z m-1724 -100 c-30
-35 -56 -70 -59 -77 -3 -10 -7 -10 -17 -2 -9 9 -2 24 34 68 25 31 50 65 56 77
9 16 14 18 25 9 12 -10 5 -23 -39 -75z m95 28 c13 -16 12 -17 -3 -4 -10 7 -18
15 -18 17 0 8 8 3 21 -13z m1549 -53 c0 -3 13 -13 29 -23 34 -20 101 -23 120
-4 10 10 11 9 6 -5 -4 -9 -21 -24 -40 -32 -29 -14 -36 -14 -69 -1 -36 15 -76
66 -76 95 1 11 4 10 15 -4 8 -11 15 -22 15 -26z m-1472 -2 c7 -7 12 -25 12
-40 0 -33 32 -148 41 -148 3 0 19 29 34 64 18 41 33 62 41 59 9 -3 3 -18 -18
-51 -17 -26 -40 -62 -52 -79 -12 -18 -24 -33 -27 -33 -6 0 -59 204 -59 228 0
15 12 16 28 0z m1383 -10 c7 -13 30 -50 51 -82 30 -45 36 -62 27 -70 -8 -8
-13 -8 -16 1 -3 7 -26 46 -53 87 -27 41 -46 77 -43 80 12 11 22 6 34 -16z
m-61 -38 c0 -16 -2 -30 -5 -30 -9 0 -26 41 -20 50 12 20 25 9 25 -20z m-64
-97 c28 -24 56 -43 63 -43 6 0 11 -9 11 -20 0 -27 -9 -25 -50 11 -19 16 -54
44 -78 61 -28 21 -38 34 -30 39 15 9 20 6 84 -48z m-1036 44 c0 -8 -73 -173
-80 -180 -21 -22 -17 17 10 79 16 38 31 77 34 87 4 13 36 26 36 14z m-300 -34
c-1 -18 -19 -35 -29 -28 -9 5 -7 11 6 21 21 16 23 16 23 7z m1051 -106 c9 -45
20 -90 24 -99 5 -13 3 -18 -8 -18 -10 0 -21 27 -36 91 -19 85 -20 109 -3 109
4 0 14 -37 23 -83z m-496 -9 c10 -40 22 -78 26 -84 5 -6 3 -19 -5 -29 -12 -17
-14 -13 -26 36 -7 30 -21 75 -31 102 -18 45 -18 47 -1 47 14 0 22 -16 37 -72z
m115 50 c0 -7 -8 -22 -17 -33 -14 -18 -15 -18 -9 -2 3 10 6 25 6 33 0 8 5 14
10 14 6 0 10 -6 10 -12z m70 -88 c0 -82 -3 -100 -15 -100 -12 0 -15 18 -15
100 0 82 3 100 15 100 12 0 15 -18 15 -100z m105 -47 c4 -28 12 -43 23 -46 9
-3 2 -5 -15 -6 -31 -1 -33 1 -34 37 -2 44 -6 87 -13 124 -3 16 0 28 7 31 12 4
14 -7 32 -140z m88 136 c43 -20 62 -95 34 -133 -12 -16 -13 -14 -10 15 5 44
-27 96 -70 114 -32 14 -32 14 -5 15 15 0 38 -5 51 -11z"/>
</g>
</svg>
